<?xml version="1.0" encoding="utf-8"?>
<!-- Generator: Adobe Illustrator 22.1.0, SVG Export Plug-In . SVG Version: 6.00 Build 0)  -->
<svg version="1.1" id="Layer_1" xmlns="http://www.w3.org/2000/svg" xmlns:xlink="http://www.w3.org/1999/xlink" x="0px" y="0px"
	 viewBox="0 0 300 300" style="enable-background:new 0 0 300 300;" xml:space="preserve">
<style type="text/css">
	.st0{fill-rule:evenodd;clip-rule:evenodd;fill:#FF00CC;}
	.st1{fill:#FF00CC;}
</style>
<g>
	<path class="st0" d="M150.1,5.1c-81.7,0-148,66.3-148,148c0,65.4,42.4,120.9,101.2,140.5c7.4,1.4,10.1-3.2,10.1-7.1
		c0-3.5-0.1-15.2-0.2-27.6c-41.2,9-49.9-17.5-49.9-17.5c-6.7-17.1-16.4-21.7-16.4-21.7c-13.4-9.2,1-9,1-9
		c14.9,1,22.7,15.3,22.7,15.3c13.2,22.6,34.6,16.1,43.1,12.3c1.3-9.6,5.2-16.1,9.4-19.8c-32.9-3.7-67.4-16.4-67.4-73.2
		c0-16.2,5.8-29.4,15.3-39.7c-1.5-3.7-6.6-18.8,1.4-39.2c0,0,12.4-4,40.7,15.2c11.8-3.3,24.5-4.9,37.1-5c12.6,0.1,25.3,1.7,37.1,5
		c28.3-19.2,40.7-15.2,40.7-15.2c8.1,20.4,3,35.4,1.5,39.2c9.5,10.4,15.2,23.6,15.2,39.7c0,56.9-34.6,69.4-67.6,73
		c5.3,4.6,10,13.6,10,27.4c0,19.8-0.2,35.7-0.2,40.6c0,3.9,2.7,8.6,10.2,7.1c58.8-19.6,101.2-75.1,101.2-140.5
		C298.2,71.4,231.9,5.1,150.1,5.1z"/>
	<path class="st1" d="M58.1,217.7c-0.3,0.7-1.5,1-2.5,0.5c-1.1-0.5-1.7-1.5-1.3-2.2c0.3-0.8,1.5-1,2.5-0.5
		C57.9,215.9,58.5,216.9,58.1,217.7L58.1,217.7z M56.3,216.3"/>
	<path class="st1" d="M64.1,224.4c-0.7,0.7-2.1,0.3-3-0.7c-1-1-1.1-2.4-0.4-3.1c0.7-0.7,2.1-0.3,3,0.7
		C64.7,222.3,64.9,223.7,64.1,224.4L64.1,224.4z M62.7,222.8"/>
	<path class="st1" d="M70,232.9c-0.9,0.6-2.4,0-3.3-1.3c-0.9-1.3-0.9-2.9,0-3.5c0.9-0.6,2.4-0.1,3.3,1.2
		C70.9,230.7,70.9,232.2,70,232.9L70,232.9z M70,232.9"/>
	<path class="st1" d="M78,241.1c-0.8,0.9-2.5,0.7-3.8-0.6c-1.3-1.2-1.7-2.9-0.8-3.8c0.8-0.9,2.6-0.6,3.8,0.6
		C78.4,238.5,78.8,240.2,78,241.1L78,241.1z M78,241.1"/>
	<path class="st1" d="M89,245.9c-0.4,1.2-2,1.7-3.7,1.2c-1.7-0.5-2.8-1.9-2.4-3c0.3-1.2,2-1.7,3.7-1.2
		C88.3,243.4,89.4,244.7,89,245.9L89,245.9z M89,245.9"/>
	<path class="st1" d="M101.1,246.8c0,1.2-1.4,2.2-3.1,2.3c-1.8,0-3.2-0.9-3.2-2.1c0-1.2,1.4-2.2,3.2-2.3
		C99.7,244.6,101.1,245.6,101.1,246.8L101.1,246.8z M101.1,246.8"/>
	<path class="st1" d="M112.4,244.9c0.2,1.2-1,2.4-2.8,2.7c-1.7,0.3-3.3-0.4-3.5-1.6c-0.2-1.2,1-2.4,2.7-2.8
		C110.6,242.9,112.2,243.7,112.4,244.9L112.4,244.9z M112.4,244.9"/>
</g>
</svg>
